{
	"patcher" : 	{
		"fileversion" : 1,
		"appversion" : 		{
			"major" : 8,
			"minor" : 1,
			"revision" : 3,
			"architecture" : "x64",
			"modernui" : 1
		}
,
		"classnamespace" : "box",
		"rect" : [ 34.0, 79.0, 1372.0, 736.0 ],
		"bglocked" : 0,
		"openinpresentation" : 0,
		"default_fontsize" : 12.0,
		"default_fontface" : 0,
		"default_fontname" : "Arial",
		"gridonopen" : 1,
		"gridsize" : [ 15.0, 15.0 ],
		"gridsnaponopen" : 1,
		"objectsnaponopen" : 1,
		"statusbarvisible" : 2,
		"toolbarvisible" : 1,
		"lefttoolbarpinned" : 0,
		"toptoolbarpinned" : 0,
		"righttoolbarpinned" : 0,
		"bottomtoolbarpinned" : 0,
		"toolbars_unpinned_last_save" : 0,
		"tallnewobj" : 0,
		"boxanimatetime" : 200,
		"enablehscroll" : 1,
		"enablevscroll" : 1,
		"devicewidth" : 0.0,
		"description" : "",
		"digest" : "",
		"tags" : "",
		"style" : "",
		"subpatcher_template" : "",
		"boxes" : [ 			{
				"box" : 				{
					"fontface" : 1,
					"fontsize" : 16.0,
					"id" : "obj-196",
					"linecount" : 3,
					"maxclass" : "comment",
					"numinlets" : 1,
					"numoutlets" : 0,
					"patching_rect" : [ 454.0, 1500.83336615562439, 135.0, 60.0 ],
					"text" : "6. Switching between waves: selector~"
				}

			}
, 			{
				"box" : 				{
					"id" : "obj-192",
					"linecount" : 4,
					"maxclass" : "comment",
					"numinlets" : 1,
					"numoutlets" : 0,
					"patching_rect" : [ 1235.000018835067749, 1784.0, 408.0, 60.0 ],
					"text" : "The selector~ object takes one parameter: the number of signals to switch between. In its first inlet, it takes a number: 0 turns it off, 1 passes the signal from the second inlet to the output, 2 passes the signal from the 3rd inlet to its output, etc. It is the MSP equivalent of the switch object."
				}

			}
, 			{
				"box" : 				{
					"id" : "obj-190",
					"linecount" : 6,
					"maxclass" : "comment",
					"numinlets" : 1,
					"numoutlets" : 0,
					"patching_rect" : [ 846.0, 1744.0, 153.0, 87.0 ],
					"text" : "The radiogroup object sends a number (0 for the first item, 1 for the second, etc.) when a buton is pressed. You can adjust its size from the Inspector."
				}

			}
, 			{
				"box" : 				{
					"id" : "obj-188",
					"linecount" : 4,
					"maxclass" : "comment",
					"numinlets" : 1,
					"numoutlets" : 0,
					"patching_rect" : [ 454.0, 1574.0, 181.0, 60.0 ],
					"text" : "Let's create a way to toggle between all the waves at the same pitch, in order to compare them more easily."
				}

			}
, 			{
				"box" : 				{
					"id" : "obj-185",
					"margins" : [ 1.0, 0.0, 1.0, 0.0 ],
					"maxclass" : "plot~",
					"numinlets" : 1,
					"numoutlets" : 1,
					"numpoints" : 401,
					"outlettype" : [ "" ],
					"patching_rect" : [ 1492.000020265579224, 1642.666665434837341, 91.333329558372498, 60.000016450881958 ],
					"subplots" : [ 						{
							"color" : [ 0.4, 0.4, 0.75, 1.0 ],
							"thickness" : 1.2,
							"point_style" : "none",
							"line_style" : "lines",
							"number_style" : "none",
							"filter" : "none",
							"domain_start" : 0.0,
							"domain_end" : 1.0,
							"domain_style" : "linear",
							"domain_markers" : [ 0.0, 0.125, 0.25, 0.375, 0.5, 0.625, 0.75, 0.875, 1.0 ],
							"domain_labels" : [  ],
							"range_start" : -1.0,
							"range_end" : 1.0,
							"range_style" : "linear",
							"range_markers" : [ -0.5, 0.0, 0.5 ],
							"range_labels" : [  ],
							"origin_x" : 0.0,
							"origin_y" : 0.0
						}
 ]
				}

			}
, 			{
				"box" : 				{
					"fontname" : "Arial",
					"fontsize" : 13.0,
					"id" : "obj-186",
					"maxclass" : "newobj",
					"numinlets" : 3,
					"numoutlets" : 1,
					"outlettype" : [ "signal" ],
					"patching_rect" : [ 1444.000018835067749, 1602.000016450881958, 67.0, 23.0 ],
					"text" : "rect~ 440."
				}

			}
, 			{
				"box" : 				{
					"fontface" : 1,
					"fontsize" : 16.0,
					"id" : "obj-172",
					"linecount" : 3,
					"maxclass" : "comment",
					"numinlets" : 1,
					"numoutlets" : 0,
					"patching_rect" : [ 1223.16667377948761, 1198.83336615562439, 134.0, 60.0 ],
					"text" : "5. The square (pulse) wave: rect~"
				}

			}
, 			{
				"box" : 				{
					"id" : "obj-177",
					"maxclass" : "comment",
					"numinlets" : 1,
					"numoutlets" : 0,
					"patching_rect" : [ 1477.833368539810181, 1198.83336615562439, 243.0, 20.0 ],
					"text" : "The rect~ object generates a square wave.  "
				}

			}
, 			{
				"box" : 				{
					"id" : "obj-179",
					"margins" : [ 1.0, 0.0, 1.0, 0.0 ],
					"maxclass" : "plot~",
					"numinlets" : 1,
					"numoutlets" : 1,
					"numpoints" : 401,
					"outlettype" : [ "" ],
					"patching_rect" : [ 1439.500029802322388, 1278.000016450881958, 172.666665315628052, 97.333350896835327 ],
					"subplots" : [ 						{
							"color" : [ 0.4, 0.4, 0.75, 1.0 ],
							"thickness" : 1.2,
							"point_style" : "none",
							"line_style" : "lines",
							"number_style" : "none",
							"filter" : "none",
							"domain_start" : 0.0,
							"domain_end" : 1.0,
							"domain_style" : "linear",
							"domain_markers" : [ 0.0, 0.125, 0.25, 0.375, 0.5, 0.625, 0.75, 0.875, 1.0 ],
							"domain_labels" : [  ],
							"range_start" : -1.0,
							"range_end" : 1.0,
							"range_style" : "linear",
							"range_markers" : [ -0.5, 0.0, 0.5 ],
							"range_labels" : [  ],
							"origin_x" : 0.0,
							"origin_y" : 0.0
						}
 ]
				}

			}
, 			{
				"box" : 				{
					"id" : "obj-180",
					"maxclass" : "ezdac~",
					"numinlets" : 2,
					"numoutlets" : 0,
					"patching_rect" : [ 1391.500028371810913, 1400.500019907951355, 45.0, 45.0 ]
				}

			}
, 			{
				"box" : 				{
					"fontname" : "Arial",
					"fontsize" : 13.0,
					"format" : 6,
					"id" : "obj-181",
					"maxclass" : "flonum",
					"numinlets" : 1,
					"numoutlets" : 2,
					"outlettype" : [ "", "bang" ],
					"parameter_enable" : 0,
					"patching_rect" : [ 1391.500028371810913, 1198.83336615562439, 72.0, 23.0 ]
				}

			}
, 			{
				"box" : 				{
					"id" : "obj-182",
					"interpinlet" : 1,
					"maxclass" : "gain~",
					"multichannelvariant" : 0,
					"numinlets" : 2,
					"numoutlets" : 2,
					"outlettype" : [ "signal", "" ],
					"parameter_enable" : 0,
					"patching_rect" : [ 1391.500028371810913, 1278.333367347717285, 22.0, 97.0 ],
					"size" : 127
				}

			}
, 			{
				"box" : 				{
					"fontname" : "Arial",
					"fontsize" : 13.0,
					"id" : "obj-183",
					"maxclass" : "newobj",
					"numinlets" : 3,
					"numoutlets" : 1,
					"outlettype" : [ "signal" ],
					"patching_rect" : [ 1391.500028371810913, 1237.333367466926575, 67.0, 23.0 ],
					"text" : "rect~ 440."
				}

			}
, 			{
				"box" : 				{
					"angle" : 270.0,
					"bgcolor" : [ 0.2, 0.2, 0.2, 0.0 ],
					"border" : 2,
					"bordercolor" : [ 0.0, 0.0, 0.0, 1.0 ],
					"id" : "obj-184",
					"maxclass" : "panel",
					"mode" : 0,
					"numinlets" : 1,
					"numoutlets" : 0,
					"patching_rect" : [ 1214.333345651626587, 1185.83336728811264, 690.166681528091431, 278.833281934261322 ],
					"proportion" : 0.5
				}

			}
, 			{
				"box" : 				{
					"fontface" : 1,
					"fontsize" : 16.0,
					"id" : "obj-163",
					"linecount" : 3,
					"maxclass" : "comment",
					"numinlets" : 1,
					"numoutlets" : 0,
					"patching_rect" : [ 1223.16667377948761, 788.83336615562439, 134.0, 60.0 ],
					"text" : "4. Another sawtooth wave: phasor~"
				}

			}
, 			{
				"box" : 				{
					"fontname" : "Arial",
					"fontsize" : 13.0,
					"id" : "obj-162",
					"maxclass" : "newobj",
					"numinlets" : 2,
					"numoutlets" : 1,
					"outlettype" : [ "signal" ],
					"patching_rect" : [ 1693.66669225692749, 931.333367466926575, 68.0, 23.0 ],
					"text" : "saw~ 440."
				}

			}
, 			{
				"box" : 				{
					"id" : "obj-161",
					"margins" : [ 1.0, 0.0, 1.0, 0.0 ],
					"maxclass" : "plot~",
					"numinlets" : 1,
					"numoutlets" : 1,
					"numpoints" : 401,
					"outlettype" : [ "" ],
					"patching_rect" : [ 1695.666693687438965, 972.000016450881958, 172.666665315628052, 97.333350896835327 ],
					"subplots" : [ 						{
							"color" : [ 0.4, 0.4, 0.75, 1.0 ],
							"thickness" : 1.2,
							"point_style" : "none",
							"line_style" : "lines",
							"number_style" : "none",
							"filter" : "none",
							"domain_start" : 0.0,
							"domain_end" : 1.0,
							"domain_style" : "linear",
							"domain_markers" : [ 0.0, 0.125, 0.25, 0.375, 0.5, 0.625, 0.75, 0.875, 1.0 ],
							"domain_labels" : [  ],
							"range_start" : -1.0,
							"range_end" : 1.0,
							"range_style" : "linear",
							"range_markers" : [ -0.5, 0.0, 0.5 ],
							"range_labels" : [  ],
							"origin_x" : 0.0,
							"origin_y" : 0.0
						}
 ]
				}

			}
, 			{
				"box" : 				{
					"id" : "obj-160",
					"linecount" : 9,
					"maxclass" : "comment",
					"numinlets" : 1,
					"numoutlets" : 0,
					"patching_rect" : [ 1481.333360433578491, 792.83336615562439, 239.0, 141.0 ],
					"text" : "The phasor~ object generates a sawtooth wave, just like saw~.  There are MSP internal differences in how the two are generated. One noticeable difference is that phasor oscillates between 0 and 1 (all values are positive,) while saw oscillates between -0.5 and 0.5 (positive and negative values.)\n\n"
				}

			}
, 			{
				"box" : 				{
					"fontface" : 1,
					"fontsize" : 16.0,
					"id" : "obj-158",
					"linecount" : 2,
					"maxclass" : "comment",
					"numinlets" : 1,
					"numoutlets" : 0,
					"patching_rect" : [ 1223.16667377948761, 488.83336615562439, 134.0, 42.0 ],
					"text" : "3. The triangle wave: tri~"
				}

			}
, 			{
				"box" : 				{
					"id" : "obj-157",
					"linecount" : 7,
					"maxclass" : "comment",
					"numinlets" : 1,
					"numoutlets" : 0,
					"patching_rect" : [ 1623.500006079673767, 568.0, 250.0, 100.0 ],
					"text" : "We can also look at the wave shape using the plot~ object, instead of scope~. Notice in this case, we are directing the signal into the graph straight out of the tri~ object (without passing it through the volume slider.) So the displayed wave shape will not change when you adust the volume."
				}

			}
, 			{
				"box" : 				{
					"id" : "obj-155",
					"linecount" : 5,
					"maxclass" : "comment",
					"numinlets" : 1,
					"numoutlets" : 0,
					"patching_rect" : [ 1477.833368539810181, 488.83336615562439, 239.0, 87.0 ],
					"text" : "The tri~ object generates a triangle wave. This looks similar to the sawtooth wave, except that the rampdown also happens over time, insead of instantly.\n\n"
				}

			}
, 			{
				"box" : 				{
					"fontface" : 1,
					"fontsize" : 16.0,
					"id" : "obj-153",
					"linecount" : 2,
					"maxclass" : "comment",
					"numinlets" : 1,
					"numoutlets" : 0,
					"patching_rect" : [ 1221.666667699813843, 13.666674017906189, 134.0, 42.0 ],
					"text" : "2. The sine wave: cycle~"
				}

			}
, 			{
				"box" : 				{
					"id" : "obj-151",
					"linecount" : 8,
					"maxclass" : "comment",
					"numinlets" : 1,
					"numoutlets" : 0,
					"patching_rect" : [ 1513.00001585483551, 13.100028038024902, 383.0, 114.0 ],
					"text" : "The cycle~ object generates a sine wave.\n\nLike the saw~ object, it takes a parameter – the frequency of the wave, which influences the pitch of the sound it produces. This can be adjusted by plugging a float into the object's left inlet.\n\nObserve the timbre difference – it sounds much smoother than the sawtooth wave. This is due to the wave shape difference."
				}

			}
, 			{
				"box" : 				{
					"id" : "obj-150",
					"linecount" : 10,
					"maxclass" : "comment",
					"numinlets" : 1,
					"numoutlets" : 0,
					"patching_rect" : [ 880.000026226043701, 386.999999523162842, 290.0, 141.0 ],
					"text" : "This is an oscilloscope (scope~ object,) which allows us to visualize our waveforms. The X axis represents time, and the Y axis shows the amplitude of the wave.\n\nAmong other parameters, we can adjust its range (the zoom on the Y axis, highest amplitude that's visible and lowest one,) as well as the amount of time units visible (zoom on the X axis, sort-of; right inlet value.) "
				}

			}
, 			{
				"box" : 				{
					"id" : "obj-147",
					"linecount" : 5,
					"maxclass" : "comment",
					"numinlets" : 1,
					"numoutlets" : 0,
					"patching_rect" : [ 638.000008225440979, 141.166675925254822, 326.0, 74.0 ],
					"text" : "The gain~ object (slider to the left) adjusts the strength of the signal generated by our sawtooth wave. In technical terms, it adjusts the amplitude of the wave, which will have an effect on the loudness of our sound. Try adjusting it, and observe how the wave changes in the oscilloscope."
				}

			}
, 			{
				"box" : 				{
					"id" : "obj-145",
					"linecount" : 7,
					"maxclass" : "comment",
					"numinlets" : 1,
					"numoutlets" : 0,
					"patching_rect" : [ 679.333341956138611, 14.666674017906189, 381.0, 100.0 ],
					"text" : "The saw~ object generates a sawtooth wave: each cycle rises from a low value to a high value over time, and then immediately drops back to low. (you can see its shape below, in the oscilloscope.)\n\nIt takes a parameter – the frequency of the wave, which influences the pitch of the sound it produces. This can be adjusted by plugging a float into the object's left inlet."
				}

			}
, 			{
				"box" : 				{
					"id" : "obj-11",
					"maxclass" : "newobj",
					"numinlets" : 1,
					"numoutlets" : 1,
					"outlettype" : [ "" ],
					"patching_rect" : [ 849.933338761329651, 312.10001802444458, 83.0, 22.0 ],
					"text" : "loadmess 128"
				}

			}
, 			{
				"box" : 				{
					"id" : "obj-12",
					"maxclass" : "newobj",
					"numinlets" : 1,
					"numoutlets" : 1,
					"outlettype" : [ "bang" ],
					"patching_rect" : [ 688.00001072883606, 312.10001802444458, 58.0, 22.0 ],
					"text" : "loadbang"
				}

			}
, 			{
				"box" : 				{
					"id" : "obj-13",
					"maxclass" : "number",
					"numinlets" : 1,
					"numoutlets" : 2,
					"outlettype" : [ "", "bang" ],
					"parameter_enable" : 0,
					"patching_rect" : [ 849.933338761329651, 342.833345413208008, 50.0, 22.0 ]
				}

			}
, 			{
				"box" : 				{
					"id" : "obj-14",
					"maxclass" : "message",
					"numinlets" : 2,
					"numoutlets" : 1,
					"outlettype" : [ "" ],
					"patching_rect" : [ 776.666680216789246, 342.833345413208008, 63.0, 22.0 ],
					"text" : "range -5 5"
				}

			}
, 			{
				"box" : 				{
					"id" : "obj-15",
					"maxclass" : "message",
					"numinlets" : 2,
					"numoutlets" : 1,
					"outlettype" : [ "" ],
					"patching_rect" : [ 688.00001072883606, 342.833345413208008, 83.0, 22.0 ],
					"text" : "range -0.5 0.5"
				}

			}
, 			{
				"box" : 				{
					"id" : "obj-16",
					"maxclass" : "ezdac~",
					"numinlets" : 2,
					"numoutlets" : 0,
					"patching_rect" : [ 558.000003814697266, 368.333332300186157, 45.0, 45.0 ]
				}

			}
, 			{
				"box" : 				{
					"calccount" : 2,
					"id" : "obj-17",
					"maxclass" : "scope~",
					"numinlets" : 2,
					"numoutlets" : 0,
					"patching_rect" : [ 685.000008702278137, 386.999999523162842, 183.933330059051514, 141.0 ],
					"range" : [ -0.5, 0.5 ],
					"trigger" : 1
				}

			}
, 			{
				"box" : 				{
					"fontname" : "Arial",
					"fontsize" : 13.0,
					"format" : 6,
					"id" : "obj-19",
					"maxclass" : "flonum",
					"numinlets" : 1,
					"numoutlets" : 2,
					"outlettype" : [ "", "bang" ],
					"parameter_enable" : 0,
					"patching_rect" : [ 587.333338022232056, 14.666674017906189, 72.0, 23.0 ]
				}

			}
, 			{
				"box" : 				{
					"id" : "obj-20",
					"interpinlet" : 1,
					"maxclass" : "gain~",
					"multichannelvariant" : 0,
					"numinlets" : 2,
					"numoutlets" : 2,
					"outlettype" : [ "signal", "" ],
					"parameter_enable" : 0,
					"patching_rect" : [ 606.333350956439972, 118.166675925254822, 22.0, 97.0 ],
					"size" : 127
				}

			}
, 			{
				"box" : 				{
					"fontname" : "Arial",
					"fontsize" : 13.0,
					"id" : "obj-21",
					"maxclass" : "newobj",
					"numinlets" : 2,
					"numoutlets" : 1,
					"outlettype" : [ "signal" ],
					"patching_rect" : [ 587.333338022232056, 53.166675329208374, 68.0, 23.0 ],
					"text" : "saw~ 440."
				}

			}
, 			{
				"box" : 				{
					"format" : 6,
					"id" : "obj-178",
					"maxclass" : "flonum",
					"numinlets" : 1,
					"numoutlets" : 2,
					"outlettype" : [ "", "bang" ],
					"parameter_enable" : 0,
					"patching_rect" : [ 1152.000038981437683, 1516.666685938835144, 78.000000834465027, 22.0 ]
				}

			}
, 			{
				"box" : 				{
					"id" : "obj-174",
					"margins" : [ 1.0, 0.0, 1.0, 0.0 ],
					"maxclass" : "plot~",
					"numinlets" : 1,
					"numoutlets" : 1,
					"numpoints" : 401,
					"outlettype" : [ "" ],
					"patching_rect" : [ 1348.000020265579224, 1642.666665434837341, 91.333329558372498, 60.000016450881958 ],
					"subplots" : [ 						{
							"color" : [ 0.4, 0.4, 0.75, 1.0 ],
							"thickness" : 1.2,
							"point_style" : "none",
							"line_style" : "lines",
							"number_style" : "none",
							"filter" : "none",
							"domain_start" : 0.0,
							"domain_end" : 1.0,
							"domain_style" : "linear",
							"domain_markers" : [ 0.0, 0.125, 0.25, 0.375, 0.5, 0.625, 0.75, 0.875, 1.0 ],
							"domain_labels" : [  ],
							"range_start" : -1.0,
							"range_end" : 1.0,
							"range_style" : "linear",
							"range_markers" : [ -0.5, 0.0, 0.5 ],
							"range_labels" : [  ],
							"origin_x" : 0.0,
							"origin_y" : 0.0
						}
 ]
				}

			}
, 			{
				"box" : 				{
					"fontname" : "Arial",
					"fontsize" : 13.0,
					"id" : "obj-176",
					"maxclass" : "newobj",
					"numinlets" : 2,
					"numoutlets" : 1,
					"outlettype" : [ "signal" ],
					"patching_rect" : [ 1300.000018835067749, 1602.000016450881958, 85.0, 23.0 ],
					"text" : "phasor~ 440."
				}

			}
, 			{
				"box" : 				{
					"id" : "obj-171",
					"margins" : [ 1.0, 0.0, 1.0, 0.0 ],
					"maxclass" : "plot~",
					"numinlets" : 1,
					"numoutlets" : 1,
					"numpoints" : 401,
					"outlettype" : [ "" ],
					"patching_rect" : [ 1194.666682362556458, 1642.666665434837341, 91.333329558372498, 60.000016450881958 ],
					"subplots" : [ 						{
							"color" : [ 0.4, 0.4, 0.75, 1.0 ],
							"thickness" : 1.2,
							"point_style" : "none",
							"line_style" : "lines",
							"number_style" : "none",
							"filter" : "none",
							"domain_start" : 0.0,
							"domain_end" : 1.0,
							"domain_style" : "linear",
							"domain_markers" : [ 0.0, 0.125, 0.25, 0.375, 0.5, 0.625, 0.75, 0.875, 1.0 ],
							"domain_labels" : [  ],
							"range_start" : -1.0,
							"range_end" : 1.0,
							"range_style" : "linear",
							"range_markers" : [ -0.5, 0.0, 0.5 ],
							"range_labels" : [  ],
							"origin_x" : 0.0,
							"origin_y" : 0.0
						}
 ]
				}

			}
, 			{
				"box" : 				{
					"fontname" : "Arial",
					"fontsize" : 13.0,
					"id" : "obj-173",
					"maxclass" : "newobj",
					"numinlets" : 3,
					"numoutlets" : 1,
					"outlettype" : [ "signal" ],
					"patching_rect" : [ 1146.666680932044983, 1602.000016450881958, 56.0, 23.0 ],
					"text" : "tri~ 440."
				}

			}
, 			{
				"box" : 				{
					"id" : "obj-168",
					"margins" : [ 1.0, 0.0, 1.0, 0.0 ],
					"maxclass" : "plot~",
					"numinlets" : 1,
					"numoutlets" : 1,
					"numpoints" : 401,
					"outlettype" : [ "" ],
					"patching_rect" : [ 1044.000011205673218, 1642.666665434837341, 91.333329558372498, 60.000016450881958 ],
					"subplots" : [ 						{
							"color" : [ 0.4, 0.4, 0.75, 1.0 ],
							"thickness" : 1.2,
							"point_style" : "none",
							"line_style" : "lines",
							"number_style" : "none",
							"filter" : "none",
							"domain_start" : 0.0,
							"domain_end" : 1.0,
							"domain_style" : "linear",
							"domain_markers" : [ 0.0, 0.125, 0.25, 0.375, 0.5, 0.625, 0.75, 0.875, 1.0 ],
							"domain_labels" : [  ],
							"range_start" : -1.0,
							"range_end" : 1.0,
							"range_style" : "linear",
							"range_markers" : [ -0.5, 0.0, 0.5 ],
							"range_labels" : [  ],
							"origin_x" : 0.0,
							"origin_y" : 0.0
						}
 ]
				}

			}
, 			{
				"box" : 				{
					"fontname" : "Arial",
					"fontsize" : 13.0,
					"id" : "obj-170",
					"maxclass" : "newobj",
					"numinlets" : 2,
					"numoutlets" : 1,
					"outlettype" : [ "signal" ],
					"patching_rect" : [ 996.000009775161743, 1602.000016450881958, 75.0, 23.0 ],
					"text" : "cycle~ 440."
				}

			}
, 			{
				"box" : 				{
					"id" : "obj-167",
					"maxclass" : "gain~",
					"multichannelvariant" : 0,
					"numinlets" : 1,
					"numoutlets" : 2,
					"outlettype" : [ "signal", "" ],
					"parameter_enable" : 0,
					"patching_rect" : [ 1152.000038981437683, 1876.666696429252625, 167.333337664604187, 22.66666316986084 ]
				}

			}
, 			{
				"box" : 				{
					"id" : "obj-166",
					"maxclass" : "ezdac~",
					"numinlets" : 2,
					"numoutlets" : 0,
					"patching_rect" : [ 1152.000038981437683, 1946.00003182888031, 45.0, 45.0 ]
				}

			}
, 			{
				"box" : 				{
					"id" : "obj-165",
					"maxclass" : "newobj",
					"numinlets" : 6,
					"numoutlets" : 1,
					"outlettype" : [ "signal" ],
					"patching_rect" : [ 1152.000038981437683, 1824.66669487953186, 71.5, 22.0 ],
					"text" : "selector~ 5"
				}

			}
, 			{
				"box" : 				{
					"disabled" : [ 0, 0, 0, 0, 0, 0 ],
					"id" : "obj-164",
					"itemtype" : 0,
					"maxclass" : "radiogroup",
					"numinlets" : 1,
					"numoutlets" : 1,
					"outlettype" : [ "" ],
					"parameter_enable" : 0,
					"patching_rect" : [ 1007.333341836929321, 1747.333361029624939, 21.0, 98.0 ],
					"size" : 6,
					"value" : 5
				}

			}
, 			{
				"box" : 				{
					"id" : "obj-148",
					"margins" : [ 1.0, 0.0, 1.0, 0.0 ],
					"maxclass" : "plot~",
					"numinlets" : 1,
					"numoutlets" : 1,
					"numpoints" : 401,
					"outlettype" : [ "" ],
					"patching_rect" : [ 886.666673183441162, 1642.666665434837341, 91.333329558372498, 60.000016450881958 ],
					"subplots" : [ 						{
							"color" : [ 0.4, 0.4, 0.75, 1.0 ],
							"thickness" : 1.2,
							"point_style" : "none",
							"line_style" : "lines",
							"number_style" : "none",
							"filter" : "none",
							"domain_start" : 0.0,
							"domain_end" : 1.0,
							"domain_style" : "linear",
							"domain_markers" : [ 0.0, 0.125, 0.25, 0.375, 0.5, 0.625, 0.75, 0.875, 1.0 ],
							"domain_labels" : [  ],
							"range_start" : -1.0,
							"range_end" : 1.0,
							"range_style" : "linear",
							"range_markers" : [ -0.5, 0.0, 0.5 ],
							"range_labels" : [  ],
							"origin_x" : 0.0,
							"origin_y" : 0.0
						}
 ]
				}

			}
, 			{
				"box" : 				{
					"fontname" : "Arial",
					"fontsize" : 13.0,
					"id" : "obj-152",
					"maxclass" : "newobj",
					"numinlets" : 2,
					"numoutlets" : 1,
					"outlettype" : [ "signal" ],
					"patching_rect" : [ 838.666671752929688, 1602.000016450881958, 68.0, 23.0 ],
					"text" : "saw~ 440."
				}

			}
, 			{
				"box" : 				{
					"id" : "obj-138",
					"margins" : [ 1.0, 0.0, 1.0, 0.0 ],
					"maxclass" : "plot~",
					"numinlets" : 1,
					"numoutlets" : 1,
					"numpoints" : 401,
					"outlettype" : [ "" ],
					"patching_rect" : [ 1437.666693687438965, 972.000016450881958, 172.666665315628052, 97.333350896835327 ],
					"subplots" : [ 						{
							"color" : [ 0.4, 0.4, 0.75, 1.0 ],
							"thickness" : 1.2,
							"point_style" : "none",
							"line_style" : "lines",
							"number_style" : "none",
							"filter" : "none",
							"domain_start" : 0.0,
							"domain_end" : 1.0,
							"domain_style" : "linear",
							"domain_markers" : [ 0.0, 0.125, 0.25, 0.375, 0.5, 0.625, 0.75, 0.875, 1.0 ],
							"domain_labels" : [  ],
							"range_start" : -1.0,
							"range_end" : 1.0,
							"range_style" : "linear",
							"range_markers" : [ -0.5, 0.0, 0.5 ],
							"range_labels" : [  ],
							"origin_x" : 0.0,
							"origin_y" : 0.0
						}
 ]
				}

			}
, 			{
				"box" : 				{
					"id" : "obj-139",
					"maxclass" : "ezdac~",
					"numinlets" : 2,
					"numoutlets" : 0,
					"patching_rect" : [ 1389.66669225692749, 1094.500019907951355, 45.0, 45.0 ]
				}

			}
, 			{
				"box" : 				{
					"fontname" : "Arial",
					"fontsize" : 13.0,
					"format" : 6,
					"id" : "obj-140",
					"maxclass" : "flonum",
					"numinlets" : 1,
					"numoutlets" : 2,
					"outlettype" : [ "", "bang" ],
					"parameter_enable" : 0,
					"patching_rect" : [ 1388.66669225692749, 792.83336615562439, 72.0, 23.0 ]
				}

			}
, 			{
				"box" : 				{
					"id" : "obj-141",
					"interpinlet" : 1,
					"maxclass" : "gain~",
					"multichannelvariant" : 0,
					"numinlets" : 2,
					"numoutlets" : 2,
					"outlettype" : [ "signal", "" ],
					"parameter_enable" : 0,
					"patching_rect" : [ 1389.66669225692749, 972.333367347717285, 22.0, 97.0 ],
					"size" : 127
				}

			}
, 			{
				"box" : 				{
					"fontname" : "Arial",
					"fontsize" : 13.0,
					"id" : "obj-142",
					"maxclass" : "newobj",
					"numinlets" : 2,
					"numoutlets" : 1,
					"outlettype" : [ "signal" ],
					"patching_rect" : [ 1389.66669225692749, 931.333367466926575, 85.0, 23.0 ],
					"text" : "phasor~ 440."
				}

			}
, 			{
				"box" : 				{
					"id" : "obj-136",
					"margins" : [ 1.0, 0.0, 1.0, 0.0 ],
					"maxclass" : "plot~",
					"numinlets" : 1,
					"numoutlets" : 1,
					"numpoints" : 401,
					"outlettype" : [ "" ],
					"patching_rect" : [ 1439.500029802322388, 568.000016450881958, 172.666665315628052, 97.333350896835327 ],
					"subplots" : [ 						{
							"color" : [ 0.4, 0.4, 0.75, 1.0 ],
							"thickness" : 1.2,
							"point_style" : "none",
							"line_style" : "lines",
							"number_style" : "none",
							"filter" : "none",
							"domain_start" : 0.0,
							"domain_end" : 1.0,
							"domain_style" : "linear",
							"domain_markers" : [ 0.0, 0.125, 0.25, 0.375, 0.5, 0.625, 0.75, 0.875, 1.0 ],
							"domain_labels" : [  ],
							"range_start" : -1.0,
							"range_end" : 1.0,
							"range_style" : "linear",
							"range_markers" : [ -0.5, 0.0, 0.5 ],
							"range_labels" : [  ],
							"origin_x" : 0.0,
							"origin_y" : 0.0
						}
 ]
				}

			}
, 			{
				"box" : 				{
					"id" : "obj-93",
					"maxclass" : "ezdac~",
					"numinlets" : 2,
					"numoutlets" : 0,
					"patching_rect" : [ 1391.500028371810913, 690.500019907951355, 45.0, 45.0 ]
				}

			}
, 			{
				"box" : 				{
					"fontname" : "Arial",
					"fontsize" : 13.0,
					"format" : 6,
					"id" : "obj-95",
					"maxclass" : "flonum",
					"numinlets" : 1,
					"numoutlets" : 2,
					"outlettype" : [ "", "bang" ],
					"parameter_enable" : 0,
					"patching_rect" : [ 1391.500028371810913, 488.83336615562439, 72.0, 23.0 ]
				}

			}
, 			{
				"box" : 				{
					"id" : "obj-96",
					"interpinlet" : 1,
					"maxclass" : "gain~",
					"multichannelvariant" : 0,
					"numinlets" : 2,
					"numoutlets" : 2,
					"outlettype" : [ "signal", "" ],
					"parameter_enable" : 0,
					"patching_rect" : [ 1391.500028371810913, 568.333367347717285, 22.0, 97.0 ],
					"size" : 127
				}

			}
, 			{
				"box" : 				{
					"fontname" : "Arial",
					"fontsize" : 13.0,
					"id" : "obj-97",
					"maxclass" : "newobj",
					"numinlets" : 3,
					"numoutlets" : 1,
					"outlettype" : [ "signal" ],
					"patching_rect" : [ 1391.500028371810913, 527.333367466926575, 56.0, 23.0 ],
					"text" : "tri~ 440."
				}

			}
, 			{
				"box" : 				{
					"id" : "obj-41",
					"maxclass" : "newobj",
					"numinlets" : 1,
					"numoutlets" : 1,
					"outlettype" : [ "" ],
					"patching_rect" : [ 1646.266690492630005, 232.100029349327087, 83.0, 22.0 ],
					"text" : "loadmess 128"
				}

			}
, 			{
				"box" : 				{
					"id" : "obj-42",
					"maxclass" : "newobj",
					"numinlets" : 1,
					"numoutlets" : 1,
					"outlettype" : [ "bang" ],
					"patching_rect" : [ 1484.333362460136414, 232.100029349327087, 58.0, 22.0 ],
					"text" : "loadbang"
				}

			}
, 			{
				"box" : 				{
					"id" : "obj-43",
					"maxclass" : "number",
					"numinlets" : 1,
					"numoutlets" : 2,
					"outlettype" : [ "", "bang" ],
					"parameter_enable" : 0,
					"patching_rect" : [ 1646.266690492630005, 267.933363914489746, 50.0, 22.0 ]
				}

			}
, 			{
				"box" : 				{
					"id" : "obj-44",
					"maxclass" : "message",
					"numinlets" : 2,
					"numoutlets" : 1,
					"outlettype" : [ "" ],
					"patching_rect" : [ 1573.0000319480896, 267.933363914489746, 63.0, 22.0 ],
					"text" : "range -5 5"
				}

			}
, 			{
				"box" : 				{
					"id" : "obj-45",
					"maxclass" : "message",
					"numinlets" : 2,
					"numoutlets" : 1,
					"outlettype" : [ "" ],
					"patching_rect" : [ 1484.333362460136414, 267.933363914489746, 83.0, 22.0 ],
					"text" : "range -0.5 0.5"
				}

			}
, 			{
				"box" : 				{
					"id" : "obj-47",
					"maxclass" : "ezdac~",
					"numinlets" : 2,
					"numoutlets" : 0,
					"patching_rect" : [ 1368.000023722648621, 309.033375263214111, 45.0, 45.0 ]
				}

			}
, 			{
				"box" : 				{
					"calccount" : 4,
					"id" : "obj-48",
					"maxclass" : "scope~",
					"numinlets" : 2,
					"numoutlets" : 0,
					"patching_rect" : [ 1481.333360433578491, 312.10001802444458, 184.000003337860107, 126.833333253860474 ],
					"range" : [ -0.5, 0.5 ],
					"trigger" : 1
				}

			}
, 			{
				"box" : 				{
					"fontname" : "Arial",
					"fontsize" : 13.0,
					"format" : 6,
					"id" : "obj-49",
					"maxclass" : "flonum",
					"numinlets" : 1,
					"numoutlets" : 2,
					"outlettype" : [ "", "bang" ],
					"parameter_enable" : 0,
					"patching_rect" : [ 1412.000025033950806, 13.100028038024902, 72.0, 23.0 ]
				}

			}
, 			{
				"box" : 				{
					"id" : "obj-50",
					"interpinlet" : 1,
					"maxclass" : "gain~",
					"multichannelvariant" : 0,
					"numinlets" : 2,
					"numoutlets" : 2,
					"outlettype" : [ "signal", "" ],
					"parameter_enable" : 0,
					"patching_rect" : [ 1431.000037968158722, 92.600029230117798, 22.0, 97.0 ],
					"size" : 127
				}

			}
, 			{
				"box" : 				{
					"fontname" : "Arial",
					"fontsize" : 13.0,
					"id" : "obj-52",
					"maxclass" : "newobj",
					"numinlets" : 2,
					"numoutlets" : 1,
					"outlettype" : [ "signal" ],
					"patching_rect" : [ 1412.000025033950806, 51.600029349327087, 75.0, 23.0 ],
					"text" : "cycle~ 440."
				}

			}
, 			{
				"box" : 				{
					"id" : "obj-4",
					"linecount" : 2,
					"maxclass" : "comment",
					"numinlets" : 1,
					"numoutlets" : 0,
					"patching_rect" : [ 11.5, 805.833335518836975, 213.0, 33.0 ],
					"text" : "Patch by Matt Romein & Cezar Mocan\nfor Real Time Media, Spring 2020"
				}

			}
, 			{
				"box" : 				{
					"fontface" : 0,
					"fontsize" : 12.0,
					"id" : "obj-1",
					"linecount" : 35,
					"maxclass" : "comment",
					"numinlets" : 1,
					"numoutlets" : 0,
					"patching_rect" : [ 11.5, 51.999999523162842, 408.0, 476.0 ],
					"text" : "Analog sound is produced by vibrations of a medium (usually air,) reaching our ear. There are, of course, countless ways to create these sound-producing vibrations (plucking a guitar string, blowing into a trumpet, etc.). Electricity is also one of them, and that is the core principle behind an analog synthesizer – generating sound by creating vibrations using rapidly changing electrical signals. \n\nA single \"vibration\" generated by an electrical signal is called an oscillation, a series of oscillations over time creates a waveform. \n\nThe physical properties of the waveform influence the sound it produces: \n\n– its frequency (how quickly or slowly each oscillation is happening) influences the sound pitch: how high or low the sound is.\n\n– its amplitude (how large each oscillation is) influences the loudness of the sound. \n\n– its shape (does it look like a sine wave? is it more of a triangular shape? etc.) influences the timbre of the sound: how harsh or clean it is, how bright or soft, etc. Timbre is what makes different instruments each have their own sound: a D played on a guitar or on a piano has the same pitch, and can have the same loudness, but has a different timbre between the two instruments.\n\nWe've been talking about analog sound so far, but we are working on a computer, in Max, meaning that we are in the realm of digital sound. MSP is great at emulating the processes happening in analog sound digitally.\n\nThis patch shows a few different waveforms that stand at the core of all sound synthesis. It always blows my mind to think of electronic music pioneers as Laurie Spiegel or Suzanne Ciani who build incredible soundscapes starting from these basic building blocks.\n\nWe will be using the following objects:"
				}

			}
, 			{
				"box" : 				{
					"fontface" : 1,
					"fontsize" : 24.0,
					"id" : "obj-107",
					"linecount" : 8,
					"maxclass" : "comment",
					"numinlets" : 1,
					"numoutlets" : 0,
					"patching_rect" : [ 11.5, 538.833335995674133, 198.0, 221.0 ],
					"text" : "cycle~, \nsaw~,\ntri~,\nphasor~,\nrect~,\ngain~,\nezdac~,\nselector~"
				}

			}
, 			{
				"box" : 				{
					"fontface" : 1,
					"fontsize" : 20.0,
					"id" : "obj-2",
					"maxclass" : "comment",
					"numinlets" : 1,
					"numoutlets" : 0,
					"patching_rect" : [ 11.5, 9.0, 306.0, 29.0 ],
					"text" : "MSP — Waveforms 101"
				}

			}
, 			{
				"box" : 				{
					"fontface" : 1,
					"fontsize" : 16.0,
					"id" : "obj-61",
					"linecount" : 2,
					"maxclass" : "comment",
					"numinlets" : 1,
					"numoutlets" : 0,
					"patching_rect" : [ 443.666667699813843, 13.666674017906189, 134.0, 42.0 ],
					"text" : "1. The sawtooth wave: saw~"
				}

			}
, 			{
				"box" : 				{
					"angle" : 270.0,
					"bgcolor" : [ 0.2, 0.2, 0.2, 0.0 ],
					"border" : 2,
					"bordercolor" : [ 0.0, 0.0, 0.0, 1.0 ],
					"id" : "obj-62",
					"maxclass" : "panel",
					"mode" : 0,
					"numinlets" : 1,
					"numoutlets" : 0,
					"patching_rect" : [ 436.83333957195282, 7.0, 746.166681528091431, 535.666649222373962 ],
					"proportion" : 0.5
				}

			}
, 			{
				"box" : 				{
					"angle" : 270.0,
					"bgcolor" : [ 0.2, 0.2, 0.2, 0.0 ],
					"border" : 2,
					"bordercolor" : [ 0.0, 0.0, 0.0, 1.0 ],
					"id" : "obj-154",
					"maxclass" : "panel",
					"mode" : 0,
					"numinlets" : 1,
					"numoutlets" : 0,
					"patching_rect" : [ 1214.83333957195282, 7.0, 694.166681528091431, 445.666649222373962 ],
					"proportion" : 0.5
				}

			}
, 			{
				"box" : 				{
					"angle" : 270.0,
					"bgcolor" : [ 0.2, 0.2, 0.2, 0.0 ],
					"border" : 2,
					"bordercolor" : [ 0.0, 0.0, 0.0, 1.0 ],
					"id" : "obj-159",
					"maxclass" : "panel",
					"mode" : 0,
					"numinlets" : 1,
					"numoutlets" : 0,
					"patching_rect" : [ 1214.333345651626587, 475.83336728811264, 690.166681528091431, 278.833281934261322 ],
					"proportion" : 0.5
				}

			}
, 			{
				"box" : 				{
					"angle" : 270.0,
					"bgcolor" : [ 0.2, 0.2, 0.2, 0.0 ],
					"border" : 2,
					"bordercolor" : [ 0.0, 0.0, 0.0, 1.0 ],
					"id" : "obj-169",
					"maxclass" : "panel",
					"mode" : 0,
					"numinlets" : 1,
					"numoutlets" : 0,
					"patching_rect" : [ 1214.333345651626587, 775.0, 690.166681528091431, 387.666649222373962 ],
					"proportion" : 0.5
				}

			}
, 			{
				"box" : 				{
					"angle" : 270.0,
					"bgcolor" : [ 0.2, 0.2, 0.2, 0.0 ],
					"border" : 2,
					"bordercolor" : [ 0.0, 0.0, 0.0, 1.0 ],
					"id" : "obj-197",
					"maxclass" : "panel",
					"mode" : 0,
					"numinlets" : 1,
					"numoutlets" : 0,
					"patching_rect" : [ 432.016664759318019, 1485.83336728811264, 1472.483362420399999, 536.833281934261322 ],
					"proportion" : 0.5
				}

			}
 ],
		"lines" : [ 			{
				"patchline" : 				{
					"destination" : [ "obj-13", 0 ],
					"source" : [ "obj-11", 0 ]
				}

			}
, 			{
				"patchline" : 				{
					"destination" : [ "obj-15", 0 ],
					"midpoints" : [ 697.50001072883606, 336.08334481716156, 697.50001072883606, 336.08334481716156 ],
					"source" : [ "obj-12", 0 ]
				}

			}
, 			{
				"patchline" : 				{
					"destination" : [ "obj-17", 1 ],
					"source" : [ "obj-13", 0 ]
				}

			}
, 			{
				"patchline" : 				{
					"destination" : [ "obj-17", 0 ],
					"midpoints" : [ 786.166680216789246, 375.416672468185425, 694.500008702278137, 375.416672468185425 ],
					"source" : [ "obj-14", 0 ]
				}

			}
, 			{
				"patchline" : 				{
					"destination" : [ "obj-142", 0 ],
					"order" : 1,
					"source" : [ "obj-140", 0 ]
				}

			}
, 			{
				"patchline" : 				{
					"destination" : [ "obj-162", 0 ],
					"midpoints" : [ 1398.16669225692749, 915.083366811275482, 1703.16669225692749, 915.083366811275482 ],
					"order" : 0,
					"source" : [ "obj-140", 0 ]
				}

			}
, 			{
				"patchline" : 				{
					"destination" : [ "obj-139", 1 ],
					"midpoints" : [ 1399.16669225692749, 1081.41669362783432, 1425.16669225692749, 1081.41669362783432 ],
					"order" : 0,
					"source" : [ "obj-141", 0 ]
				}

			}
, 			{
				"patchline" : 				{
					"destination" : [ "obj-139", 0 ],
					"midpoints" : [ 1399.16669225692749, 1081.41669362783432, 1399.16669225692749, 1081.41669362783432 ],
					"order" : 1,
					"source" : [ "obj-141", 0 ]
				}

			}
, 			{
				"patchline" : 				{
					"destination" : [ "obj-138", 0 ],
					"midpoints" : [ 1399.16669225692749, 963.333358645439148, 1447.166693687438965, 963.333358645439148 ],
					"order" : 0,
					"source" : [ "obj-142", 0 ]
				}

			}
, 			{
				"patchline" : 				{
					"destination" : [ "obj-141", 0 ],
					"order" : 1,
					"source" : [ "obj-142", 0 ]
				}

			}
, 			{
				"patchline" : 				{
					"destination" : [ "obj-17", 0 ],
					"midpoints" : [ 697.50001072883606, 375.416672468185425, 694.500008702278137, 375.416672468185425 ],
					"source" : [ "obj-15", 0 ]
				}

			}
, 			{
				"patchline" : 				{
					"destination" : [ "obj-148", 0 ],
					"midpoints" : [ 848.166671752929688, 1634.000007629394531, 896.166673183441162, 1634.000007629394531 ],
					"order" : 1,
					"source" : [ "obj-152", 0 ]
				}

			}
, 			{
				"patchline" : 				{
					"destination" : [ "obj-165", 1 ],
					"midpoints" : [ 848.166671752929688, 1724.333355665206909, 1172.000038981437683, 1724.333355665206909 ],
					"order" : 0,
					"source" : [ "obj-152", 0 ]
				}

			}
, 			{
				"patchline" : 				{
					"destination" : [ "obj-161", 0 ],
					"source" : [ "obj-162", 0 ]
				}

			}
, 			{
				"patchline" : 				{
					"destination" : [ "obj-165", 0 ],
					"midpoints" : [ 1016.833341836929321, 1856.66669487953186, 1110.500024378299713, 1856.66669487953186, 1110.500024378299713, 1813.66669487953186, 1161.500038981437683, 1813.66669487953186 ],
					"source" : [ "obj-164", 0 ]
				}

			}
, 			{
				"patchline" : 				{
					"destination" : [ "obj-167", 0 ],
					"source" : [ "obj-165", 0 ]
				}

			}
, 			{
				"patchline" : 				{
					"destination" : [ "obj-166", 1 ],
					"midpoints" : [ 1161.500038981437683, 1940.833362936973572, 1187.500038981437683, 1940.833362936973572 ],
					"order" : 0,
					"source" : [ "obj-167", 0 ]
				}

			}
, 			{
				"patchline" : 				{
					"destination" : [ "obj-166", 0 ],
					"midpoints" : [ 1161.500038981437683, 1940.833362936973572, 1161.500038981437683, 1940.833362936973572 ],
					"order" : 1,
					"source" : [ "obj-167", 0 ]
				}

			}
, 			{
				"patchline" : 				{
					"destination" : [ "obj-165", 2 ],
					"midpoints" : [ 1005.500009775161743, 1724.333355665206909, 1182.500038981437683, 1724.333355665206909 ],
					"order" : 0,
					"source" : [ "obj-170", 0 ]
				}

			}
, 			{
				"patchline" : 				{
					"destination" : [ "obj-168", 0 ],
					"midpoints" : [ 1005.500009775161743, 1634.000007629394531, 1053.500011205673218, 1634.000007629394531 ],
					"order" : 1,
					"source" : [ "obj-170", 0 ]
				}

			}
, 			{
				"patchline" : 				{
					"destination" : [ "obj-165", 3 ],
					"midpoints" : [ 1156.166680932044983, 1724.333355665206909, 1193.000038981437683, 1724.333355665206909 ],
					"order" : 1,
					"source" : [ "obj-173", 0 ]
				}

			}
, 			{
				"patchline" : 				{
					"destination" : [ "obj-171", 0 ],
					"midpoints" : [ 1156.166680932044983, 1634.000007629394531, 1204.166682362556458, 1634.000007629394531 ],
					"order" : 0,
					"source" : [ "obj-173", 0 ]
				}

			}
, 			{
				"patchline" : 				{
					"destination" : [ "obj-165", 4 ],
					"midpoints" : [ 1309.500018835067749, 1724.333355665206909, 1203.500038981437683, 1724.333355665206909 ],
					"order" : 1,
					"source" : [ "obj-176", 0 ]
				}

			}
, 			{
				"patchline" : 				{
					"destination" : [ "obj-174", 0 ],
					"midpoints" : [ 1309.500018835067749, 1634.000007629394531, 1357.500020265579224, 1634.000007629394531 ],
					"order" : 0,
					"source" : [ "obj-176", 0 ]
				}

			}
, 			{
				"patchline" : 				{
					"destination" : [ "obj-152", 0 ],
					"midpoints" : [ 1161.500038981437683, 1576.500017940998077, 848.166671752929688, 1576.500017940998077 ],
					"order" : 4,
					"source" : [ "obj-178", 0 ]
				}

			}
, 			{
				"patchline" : 				{
					"destination" : [ "obj-170", 0 ],
					"midpoints" : [ 1161.500038981437683, 1576.500017940998077, 1005.500009775161743, 1576.500017940998077 ],
					"order" : 3,
					"source" : [ "obj-178", 0 ]
				}

			}
, 			{
				"patchline" : 				{
					"destination" : [ "obj-173", 0 ],
					"midpoints" : [ 1161.500038981437683, 1576.500017940998077, 1156.166680932044983, 1576.500017940998077 ],
					"order" : 2,
					"source" : [ "obj-178", 0 ]
				}

			}
, 			{
				"patchline" : 				{
					"destination" : [ "obj-176", 0 ],
					"midpoints" : [ 1161.500038981437683, 1576.500017940998077, 1309.500018835067749, 1576.500017940998077 ],
					"order" : 1,
					"source" : [ "obj-178", 0 ]
				}

			}
, 			{
				"patchline" : 				{
					"destination" : [ "obj-186", 0 ],
					"midpoints" : [ 1161.500038981437683, 1573.833351194858551, 1453.500018835067749, 1573.833351194858551 ],
					"order" : 0,
					"source" : [ "obj-178", 0 ]
				}

			}
, 			{
				"patchline" : 				{
					"destination" : [ "obj-183", 0 ],
					"source" : [ "obj-181", 0 ]
				}

			}
, 			{
				"patchline" : 				{
					"destination" : [ "obj-180", 1 ],
					"midpoints" : [ 1401.000028371810913, 1387.41669362783432, 1427.000028371810913, 1387.41669362783432 ],
					"order" : 0,
					"source" : [ "obj-182", 0 ]
				}

			}
, 			{
				"patchline" : 				{
					"destination" : [ "obj-180", 0 ],
					"midpoints" : [ 1401.000028371810913, 1387.41669362783432, 1401.000028371810913, 1387.41669362783432 ],
					"order" : 1,
					"source" : [ "obj-182", 0 ]
				}

			}
, 			{
				"patchline" : 				{
					"destination" : [ "obj-179", 0 ],
					"midpoints" : [ 1401.000028371810913, 1269.333358645439148, 1449.000029802322388, 1269.333358645439148 ],
					"order" : 0,
					"source" : [ "obj-183", 0 ]
				}

			}
, 			{
				"patchline" : 				{
					"destination" : [ "obj-182", 0 ],
					"order" : 1,
					"source" : [ "obj-183", 0 ]
				}

			}
, 			{
				"patchline" : 				{
					"destination" : [ "obj-165", 5 ],
					"midpoints" : [ 1453.500018835067749, 1724.333355665206909, 1214.000038981437683, 1724.333355665206909 ],
					"order" : 1,
					"source" : [ "obj-186", 0 ]
				}

			}
, 			{
				"patchline" : 				{
					"destination" : [ "obj-185", 0 ],
					"midpoints" : [ 1453.500018835067749, 1634.000007629394531, 1501.500020265579224, 1634.000007629394531 ],
					"order" : 0,
					"source" : [ "obj-186", 0 ]
				}

			}
, 			{
				"patchline" : 				{
					"destination" : [ "obj-21", 0 ],
					"source" : [ "obj-19", 0 ]
				}

			}
, 			{
				"patchline" : 				{
					"destination" : [ "obj-16", 1 ],
					"midpoints" : [ 615.833350956439972, 296.083336770534515, 593.500003814697266, 296.083336770534515 ],
					"order" : 1,
					"source" : [ "obj-20", 0 ]
				}

			}
, 			{
				"patchline" : 				{
					"destination" : [ "obj-16", 0 ],
					"midpoints" : [ 615.833350956439972, 296.083336770534515, 567.500003814697266, 296.083336770534515 ],
					"order" : 2,
					"source" : [ "obj-20", 0 ]
				}

			}
, 			{
				"patchline" : 				{
					"destination" : [ "obj-17", 0 ],
					"midpoints" : [ 615.833350956439972, 376.583339989185333, 694.500008702278137, 376.583339989185333 ],
					"order" : 0,
					"source" : [ "obj-20", 0 ]
				}

			}
, 			{
				"patchline" : 				{
					"destination" : [ "obj-20", 0 ],
					"midpoints" : [ 596.833338022232056, 84.666675269603729, 615.833350956439972, 84.666675269603729 ],
					"source" : [ "obj-21", 0 ]
				}

			}
, 			{
				"patchline" : 				{
					"destination" : [ "obj-43", 0 ],
					"source" : [ "obj-41", 0 ]
				}

			}
, 			{
				"patchline" : 				{
					"destination" : [ "obj-45", 0 ],
					"midpoints" : [ 1493.833362460136414, 261.183363318443298, 1493.833362460136414, 261.183363318443298 ],
					"source" : [ "obj-42", 0 ]
				}

			}
, 			{
				"patchline" : 				{
					"destination" : [ "obj-48", 1 ],
					"source" : [ "obj-43", 0 ]
				}

			}
, 			{
				"patchline" : 				{
					"destination" : [ "obj-48", 0 ],
					"midpoints" : [ 1582.5000319480896, 300.516690969467163, 1490.833360433578491, 300.516690969467163 ],
					"source" : [ "obj-44", 0 ]
				}

			}
, 			{
				"patchline" : 				{
					"destination" : [ "obj-48", 0 ],
					"midpoints" : [ 1493.833362460136414, 300.516690969467163, 1490.833360433578491, 300.516690969467163 ],
					"source" : [ "obj-45", 0 ]
				}

			}
, 			{
				"patchline" : 				{
					"destination" : [ "obj-52", 0 ],
					"source" : [ "obj-49", 0 ]
				}

			}
, 			{
				"patchline" : 				{
					"destination" : [ "obj-47", 1 ],
					"midpoints" : [ 1440.500037968158722, 294.516690790653229, 1403.500023722648621, 294.516690790653229 ],
					"order" : 1,
					"source" : [ "obj-50", 0 ]
				}

			}
, 			{
				"patchline" : 				{
					"destination" : [ "obj-47", 0 ],
					"midpoints" : [ 1440.500037968158722, 294.516690790653229, 1377.500023722648621, 294.516690790653229 ],
					"order" : 2,
					"source" : [ "obj-50", 0 ]
				}

			}
, 			{
				"patchline" : 				{
					"destination" : [ "obj-48", 0 ],
					"midpoints" : [ 1440.500037968158722, 299.683358430862427, 1490.833360433578491, 299.683358430862427 ],
					"order" : 0,
					"source" : [ "obj-50", 0 ]
				}

			}
, 			{
				"patchline" : 				{
					"destination" : [ "obj-50", 0 ],
					"midpoints" : [ 1421.500025033950806, 83.100029289722443, 1440.500037968158722, 83.100029289722443 ],
					"source" : [ "obj-52", 0 ]
				}

			}
, 			{
				"patchline" : 				{
					"destination" : [ "obj-97", 0 ],
					"source" : [ "obj-95", 0 ]
				}

			}
, 			{
				"patchline" : 				{
					"destination" : [ "obj-93", 1 ],
					"midpoints" : [ 1401.000028371810913, 677.41669362783432, 1427.000028371810913, 677.41669362783432 ],
					"order" : 0,
					"source" : [ "obj-96", 0 ]
				}

			}
, 			{
				"patchline" : 				{
					"destination" : [ "obj-93", 0 ],
					"midpoints" : [ 1401.000028371810913, 677.41669362783432, 1401.000028371810913, 677.41669362783432 ],
					"order" : 1,
					"source" : [ "obj-96", 0 ]
				}

			}
, 			{
				"patchline" : 				{
					"destination" : [ "obj-136", 0 ],
					"midpoints" : [ 1401.000028371810913, 559.333358645439148, 1449.000029802322388, 559.333358645439148 ],
					"order" : 0,
					"source" : [ "obj-97", 0 ]
				}

			}
, 			{
				"patchline" : 				{
					"destination" : [ "obj-96", 0 ],
					"order" : 1,
					"source" : [ "obj-97", 0 ]
				}

			}
 ],
		"dependency_cache" : [  ],
		"autosave" : 0
	}

}
