{
	"patcher" : 	{
		"fileversion" : 1,
		"appversion" : 		{
			"major" : 8,
			"minor" : 1,
			"revision" : 3,
			"architecture" : "x64",
			"modernui" : 1
		}
,
		"classnamespace" : "box",
		"rect" : [ 34.0, 79.0, 1372.0, 736.0 ],
		"bglocked" : 0,
		"openinpresentation" : 0,
		"default_fontsize" : 12.0,
		"default_fontface" : 0,
		"default_fontname" : "Arial",
		"gridonopen" : 1,
		"gridsize" : [ 15.0, 15.0 ],
		"gridsnaponopen" : 1,
		"objectsnaponopen" : 1,
		"statusbarvisible" : 2,
		"toolbarvisible" : 1,
		"lefttoolbarpinned" : 0,
		"toptoolbarpinned" : 0,
		"righttoolbarpinned" : 0,
		"bottomtoolbarpinned" : 0,
		"toolbars_unpinned_last_save" : 0,
		"tallnewobj" : 0,
		"boxanimatetime" : 200,
		"enablehscroll" : 1,
		"enablevscroll" : 1,
		"devicewidth" : 0.0,
		"description" : "",
		"digest" : "",
		"tags" : "",
		"style" : "",
		"subpatcher_template" : "",
		"boxes" : [ 			{
				"box" : 				{
					"id" : "obj-27",
					"linecount" : 7,
					"maxclass" : "comment",
					"numinlets" : 1,
					"numoutlets" : 0,
					"patching_rect" : [ 483.5, 54.166654109954834, 213.0, 100.0 ],
					"text" : "We build a simple synthesizer, by making use of a keyboard to control pitch, an oscillator to generate sound, an envelope to control the ramp-up & down of each individual sound, and a low-pass filter to adjust the shape of our wave."
				}

			}
, 			{
				"box" : 				{
					"fontface" : 1,
					"fontsize" : 20.0,
					"id" : "obj-26",
					"maxclass" : "comment",
					"numinlets" : 1,
					"numoutlets" : 0,
					"patching_rect" : [ 483.5, 9.0, 306.0, 29.0 ],
					"text" : "BEAP Synthesizer"
				}

			}
, 			{
				"box" : 				{
					"id" : "obj-25",
					"linecount" : 4,
					"maxclass" : "comment",
					"numinlets" : 1,
					"numoutlets" : 0,
					"patching_rect" : [ 1066.333359479904175, 1629.333364844322205, 373.0, 60.0 ],
					"text" : "At the end of our chain is the Stereo object, which simply plays the signal it receives, over 2 channels. Similar to the ezdac~ MSP object. You can turn it on / off by pressin on the \"dsp on\" button, and adjust the gain from the slider."
				}

			}
, 			{
				"box" : 				{
					"id" : "obj-23",
					"linecount" : 5,
					"maxclass" : "comment",
					"numinlets" : 1,
					"numoutlets" : 0,
					"patching_rect" : [ 929.000022053718567, 1406.666703104972839, 373.0, 74.0 ],
					"text" : "This is a VCA – Voltage Controlled Amplifier. It takes Signal in its left inlet (the frequency generated by our oscillator, filtered by the LPF) and a Control Voltage in the right one (our signal intensity, as it comes from the keyboard – 1 for pressed, 0 for not pressed) and applies it as a volume to the sound signal. "
				}

			}
, 			{
				"box" : 				{
					"id" : "obj-22",
					"linecount" : 9,
					"maxclass" : "comment",
					"numinlets" : 1,
					"numoutlets" : 0,
					"patching_rect" : [ 929.000022053718567, 1137.333361744880676, 372.0, 127.0 ],
					"text" : "The LPF object above stands for a Low-Pass Filter. As its name suggests, it lets frequencies below a certain threshold pass, and blocks the ones above. High-Pass Filters do the opposite, and Band-Pass Filters onlly allow a range of frequencies (with a given lower and upper bound) to pass. \n\nIf you adjust the Offset knob, you will hear the difference in sound. You can also click on the 'Semi' button next to the knob in order to toggle between the Semitone and Frequency modes."
				}

			}
, 			{
				"box" : 				{
					"fontface" : 0,
					"fontname" : "Arial",
					"fontsize" : 12.0,
					"id" : "obj-21",
					"maxclass" : "number~",
					"mode" : 2,
					"numinlets" : 2,
					"numoutlets" : 2,
					"outlettype" : [ "signal", "float" ],
					"patching_rect" : [ 839.000007748603821, 409.000011920928955, 56.0, 22.0 ],
					"sig" : 0.0
				}

			}
, 			{
				"box" : 				{
					"id" : "obj-18",
					"linecount" : 4,
					"maxclass" : "comment",
					"numinlets" : 1,
					"numoutlets" : 0,
					"patching_rect" : [ 520.33334219455719, 913.333355069160461, 372.0, 60.0 ],
					"text" : "The Big Scope is just an oscilloscope, where we can visualize the shape of our generated waves. You can \"zoom in\" or \"zoom out\" by hitting the \"/2\" or \"*2\" buttons, or select the Smart option in order to let Max autoadjust the zoom level based on the input frequency."
				}

			}
, 			{
				"box" : 				{
					"id" : "obj-16",
					"linecount" : 23,
					"maxclass" : "comment",
					"numinlets" : 1,
					"numoutlets" : 0,
					"patching_rect" : [ 943.000030994415283, 684.000014901161194, 281.0, 315.0 ],
					"text" : "This is a BEAP oscillator, which really just incorporates the functionalities of a few MSP oscillator objects we've looked at (tri~, cycle~, rect~, etc.) Notice you can select four wave types from its user interface (sine, triangle, sawtooth, square)\n\nThe left-most inlet, CV1, takes signal coming from our keyboard, and turns it into the frequency of the oscillator. CV stands for Control Voltage, and is a concept we'll see used quite often in BEAP. It's simply a way of carrying information. You notice two other CV inlets (CV2 and CV3,) and number boxes with those labels in the UI. You could attach multiple input sources to this oscillator, and tell it to take 15% of the second one, and 22% of the third one.\n\nAlso notice the PW knob – it stands for Pulse Width. This only applies to the square wave (also called a pulse,) and controls the width of each individual wave. Changing it will change the pitch and timbre of the sound."
				}

			}
, 			{
				"box" : 				{
					"bgmode" : 0,
					"border" : 0,
					"clickthrough" : 0,
					"enablehscroll" : 0,
					"enablevscroll" : 0,
					"extract" : 1,
					"id" : "obj-14",
					"lockeddragscroll" : 0,
					"maxclass" : "bpatcher",
					"name" : "bp.History.maxpat",
					"numinlets" : 1,
					"numoutlets" : 1,
					"offset" : [ 0.0, 0.0 ],
					"outlettype" : [ "signal" ],
					"patching_rect" : [ 907.000009775161743, 409.000011920928955, 121.0, 116.0 ],
					"varname" : "bp.History[2]",
					"viewvisibility" : 1
				}

			}
, 			{
				"box" : 				{
					"bgmode" : 0,
					"border" : 0,
					"clickthrough" : 0,
					"enablehscroll" : 0,
					"enablevscroll" : 0,
					"extract" : 1,
					"id" : "obj-13",
					"lockeddragscroll" : 0,
					"maxclass" : "bpatcher",
					"name" : "bp.History.maxpat",
					"numinlets" : 1,
					"numoutlets" : 1,
					"offset" : [ 0.0, 0.0 ],
					"outlettype" : [ "signal" ],
					"patching_rect" : [ 1463.000015139579773, 409.000011920928955, 121.0, 116.0 ],
					"varname" : "bp.History[1]",
					"viewvisibility" : 1
				}

			}
, 			{
				"box" : 				{
					"id" : "obj-17",
					"linecount" : 15,
					"maxclass" : "comment",
					"numinlets" : 1,
					"numoutlets" : 0,
					"patching_rect" : [ 943.000030994415283, 184.0, 497.0, 208.0 ],
					"text" : "The keyboard module works like a kslider, but it offers significantly more control. It can also be used to send MIDI messages to Max, or to other applications (the 'to Max 1' dropdown controlls the MIDI channel.)\n\nThe '1v/oct' outlet sends the signal carrying pitch, and the 'Gate' outlet sends out signal carrying information on whether a key is pressed or not. Press different keys on the keyboard, and observe the how the two History oscilloscopes below react.\n\nIn the modular synth world, all information between different modules is carried over wire, by electrical signal. BEAP borrows this  representation. '1v/oct' comes from \"1 volt per octave\", meaning that a difference of one volt in the signal represents an octave difference in the pitch.\n\nThe number to the left of the History scope (number~ object) represents the \"voltage\" of the sent signal. "
				}

			}
, 			{
				"box" : 				{
					"id" : "obj-4",
					"linecount" : 2,
					"maxclass" : "comment",
					"numinlets" : 1,
					"numoutlets" : 0,
					"patching_rect" : [ 11.5, 672.833339214324951, 213.0, 33.0 ],
					"text" : "Patch by Matt Romein & Cezar Mocan\nfor Real Time Media, Spring 2020"
				}

			}
, 			{
				"box" : 				{
					"fontface" : 0,
					"fontsize" : 12.0,
					"id" : "obj-3",
					"linecount" : 22,
					"maxclass" : "comment",
					"numinlets" : 1,
					"numoutlets" : 0,
					"patching_rect" : [ 11.5, 68.0, 380.0, 301.0 ],
					"text" : "BEAP is a collection of modules, with functionalities borrowed from the modular synthesizers world, which allow us to create sound in Max at a higher abstraction level than MSP objects. Instead of doing individual, low-level operations on the signal, we can use pre-made BEAP objects, such as oscillators, filters, sequencers, quantizers, mixers and many others. To make a physical computing comparison, using a BEAP module as opposed to MSP objects is somewhat similar to using a breakout board with a certain functionality from Adafruit, as opposed to building that circuit yourself: you still need to do a good amount of soldering and write some code in order to get the circuit working, but have the convenience of an already built commonly used module.\n\nBEAP modules, like MSP objects, work with signal, so the two can be combined. We won't be doing much of that in this series of patches, but know that it's possible.\n\nBEAP modules can be accessed from the left-side menu bar in Max, under the circled \"b\" item – second last one.\n\nIn this patch, we are building a simple synthesizer using BEAP. We will be using the following modules:"
				}

			}
, 			{
				"box" : 				{
					"fontface" : 1,
					"fontsize" : 24.0,
					"id" : "obj-107",
					"linecount" : 10,
					"maxclass" : "comment",
					"numinlets" : 1,
					"numoutlets" : 0,
					"patching_rect" : [ 11.5, 383.16666841506958, 400.0, 275.0 ],
					"text" : "Keyboard (under Input)\nOscillator (under Oscillator)\nLPF (low-pass filter, under Filter)\nVCA (voltage-controlled amplifier, under Level)\nASR (Attack-Sustain-Release, under Envelope)\nStereo (under Output)\nBig Scope (under Scope)\nHistory (under Scope)"
				}

			}
, 			{
				"box" : 				{
					"fontface" : 1,
					"fontsize" : 20.0,
					"id" : "obj-5",
					"maxclass" : "comment",
					"numinlets" : 1,
					"numoutlets" : 0,
					"patching_rect" : [ 11.5, 9.0, 306.0, 29.0 ],
					"text" : "BEAP — Making a synthesizer"
				}

			}
, 			{
				"box" : 				{
					"bgmode" : 0,
					"border" : 0,
					"clickthrough" : 0,
					"enablehscroll" : 0,
					"enablevscroll" : 0,
					"extract" : 1,
					"id" : "obj-12",
					"lockeddragscroll" : 0,
					"maxclass" : "bpatcher",
					"name" : "bp.Big Scope.maxpat",
					"numinlets" : 2,
					"numoutlets" : 1,
					"offset" : [ 0.0, 0.0 ],
					"outlettype" : [ "signal" ],
					"patching_rect" : [ 520.33334219455719, 684.000014901161194, 372.0, 214.0 ],
					"varname" : "bp.Big Scope",
					"viewvisibility" : 1
				}

			}
, 			{
				"box" : 				{
					"bgmode" : 0,
					"border" : 0,
					"clickthrough" : 0,
					"enablehscroll" : 0,
					"enablevscroll" : 0,
					"extract" : 1,
					"id" : "obj-6",
					"lockeddragscroll" : 0,
					"maxclass" : "bpatcher",
					"name" : "bp.Keyboard.maxpat",
					"numinlets" : 0,
					"numoutlets" : 4,
					"offset" : [ 0.0, 0.0 ],
					"outlettype" : [ "signal", "signal", "signal", "signal" ],
					"patching_rect" : [ 907.000009775161743, 33.000000357627869, 578.0, 117.0 ],
					"varname" : "bp.Keyboard",
					"viewvisibility" : 1
				}

			}
, 			{
				"box" : 				{
					"bgmode" : 0,
					"border" : 0,
					"clickthrough" : 0,
					"enablehscroll" : 0,
					"enablevscroll" : 0,
					"extract" : 1,
					"id" : "obj-11",
					"lockeddragscroll" : 0,
					"maxclass" : "bpatcher",
					"name" : "bp.Stereo.maxpat",
					"numinlets" : 2,
					"numoutlets" : 0,
					"offset" : [ 0.0, 0.0 ],
					"patching_rect" : [ 907.000009775161743, 1629.333364844322205, 148.0, 116.0 ],
					"varname" : "bp.Stereo",
					"viewvisibility" : 1
				}

			}
, 			{
				"box" : 				{
					"bgmode" : 0,
					"border" : 0,
					"clickthrough" : 0,
					"enablehscroll" : 0,
					"enablevscroll" : 0,
					"extract" : 1,
					"id" : "obj-9",
					"lockeddragscroll" : 0,
					"maxclass" : "bpatcher",
					"name" : "bp.VCA.maxpat",
					"numinlets" : 2,
					"numoutlets" : 1,
					"offset" : [ 0.0, 0.0 ],
					"outlettype" : [ "signal" ],
					"patching_rect" : [ 907.000009775161743, 1282.666691064834595, 113.0, 116.0 ],
					"varname" : "bp.VCA",
					"viewvisibility" : 1
				}

			}
, 			{
				"box" : 				{
					"bgmode" : 0,
					"border" : 0,
					"clickthrough" : 0,
					"enablehscroll" : 0,
					"enablevscroll" : 0,
					"extract" : 1,
					"id" : "obj-8",
					"lockeddragscroll" : 0,
					"maxclass" : "bpatcher",
					"name" : "bp.LPF.maxpat",
					"numinlets" : 5,
					"numoutlets" : 1,
					"offset" : [ 0.0, 0.0 ],
					"outlettype" : [ "signal" ],
					"patching_rect" : [ 907.000009775161743, 1012.333354353904724, 304.0, 116.0 ],
					"varname" : "bp.LPF",
					"viewvisibility" : 1
				}

			}
, 			{
				"box" : 				{
					"bgmode" : 0,
					"border" : 0,
					"clickthrough" : 0,
					"enablehscroll" : 0,
					"enablevscroll" : 0,
					"extract" : 1,
					"id" : "obj-7",
					"lockeddragscroll" : 0,
					"maxclass" : "bpatcher",
					"name" : "bp.Oscillator.maxpat",
					"numinlets" : 6,
					"numoutlets" : 2,
					"offset" : [ 0.0, 0.0 ],
					"outlettype" : [ "signal", "signal" ],
					"patching_rect" : [ 907.000009775161743, 555.000011682510376, 314.0, 116.0 ],
					"varname" : "bp.Oscillator",
					"viewvisibility" : 1
				}

			}
, 			{
				"box" : 				{
					"angle" : 270.0,
					"bgcolor" : [ 0.2, 0.2, 0.2, 0.0 ],
					"border" : 2,
					"bordercolor" : [ 0.0, 0.0, 0.0, 1.0 ],
					"id" : "obj-62",
					"maxclass" : "panel",
					"mode" : 0,
					"numinlets" : 1,
					"numoutlets" : 0,
					"patching_rect" : [ 479.500004887580872, 5.499997735023499, 1410.666682243347168, 1755.166672468185425 ],
					"proportion" : 0.5
				}

			}
 ],
		"lines" : [ 			{
				"patchline" : 				{
					"destination" : [ "obj-9", 1 ],
					"midpoints" : [ 1472.500015139579773, 1271.333351492881775, 1010.500009775161743, 1271.333351492881775 ],
					"source" : [ "obj-13", 0 ]
				}

			}
, 			{
				"patchline" : 				{
					"destination" : [ "obj-7", 0 ],
					"source" : [ "obj-14", 0 ]
				}

			}
, 			{
				"patchline" : 				{
					"destination" : [ "obj-13", 0 ],
					"midpoints" : [ 1102.833343108495001, 173.333336472511292, 1472.500015139579773, 173.333336472511292 ],
					"source" : [ "obj-6", 1 ]
				}

			}
, 			{
				"patchline" : 				{
					"destination" : [ "obj-14", 0 ],
					"order" : 1,
					"source" : [ "obj-6", 0 ]
				}

			}
, 			{
				"patchline" : 				{
					"destination" : [ "obj-21", 0 ],
					"midpoints" : [ 916.500009775161743, 357.500008881092072, 848.500007748603821, 357.500008881092072 ],
					"order" : 0,
					"source" : [ "obj-6", 0 ]
				}

			}
, 			{
				"patchline" : 				{
					"destination" : [ "obj-12", 0 ],
					"midpoints" : [ 916.500009775161743, 677.000013291835785, 529.83334219455719, 677.000013291835785 ],
					"order" : 1,
					"source" : [ "obj-7", 0 ]
				}

			}
, 			{
				"patchline" : 				{
					"destination" : [ "obj-8", 0 ],
					"order" : 0,
					"source" : [ "obj-7", 0 ]
				}

			}
, 			{
				"patchline" : 				{
					"destination" : [ "obj-9", 0 ],
					"source" : [ "obj-8", 0 ]
				}

			}
, 			{
				"patchline" : 				{
					"destination" : [ "obj-11", 1 ],
					"midpoints" : [ 916.500009775161743, 1561.500029385089874, 1045.500009775161743, 1561.500029385089874 ],
					"order" : 0,
					"source" : [ "obj-9", 0 ]
				}

			}
, 			{
				"patchline" : 				{
					"destination" : [ "obj-11", 0 ],
					"midpoints" : [ 916.500009775161743, 1561.500029385089874, 916.500009775161743, 1561.500029385089874 ],
					"order" : 1,
					"source" : [ "obj-9", 0 ]
				}

			}
 ],
		"parameters" : 		{
			"obj-7::obj-129" : [ "CV2", "CV2", 0 ],
			"obj-8::obj-20" : [ "Freq[1]", "Freq", 0 ],
			"obj-7::obj-51" : [ "Freq", "Freq", 0 ],
			"obj-6::obj-15::obj-2" : [ "pastebang[1]", "pastebang", 0 ],
			"obj-7::obj-46" : [ "Offset", "Offset", 0 ],
			"obj-8::obj-23" : [ "Offset[1]", "Offset", 0 ],
			"obj-6::obj-5" : [ "Octave", "Octave", 0 ],
			"obj-8::obj-54" : [ "CV1", "CV1", 0 ],
			"obj-7::obj-11" : [ "PWM", "PWM", 0 ],
			"obj-9::obj-33" : [ "Quadrants", "Quadrants", 0 ],
			"obj-6::obj-48" : [ "live.text", "live.text", 0 ],
			"obj-11::obj-56" : [ "OutputChannel", "OutputChannel", 0 ],
			"obj-7::obj-107" : [ "Linear", "Linear", 0 ],
			"obj-8::obj-55" : [ "power", "power", 0 ],
			"obj-8::obj-95" : [ "ResCV", "CV", 0 ],
			"obj-12::obj-52" : [ "multiply", "multiply", 0 ],
			"obj-6::obj-68" : [ "RepeatInterval", "RepeatInterval", 0 ],
			"obj-7::obj-106" : [ "CV3", "CV3", 0 ],
			"obj-12::obj-129" : [ "Points", "Points", 0 ],
			"obj-7::obj-4" : [ "Waveform", "Waveform", 0 ],
			"obj-13::obj-16" : [ "range[1]", "range", 0 ],
			"obj-8::obj-51" : [ "CV2[1]", "CV2", 0 ],
			"obj-9::obj-80" : [ "Response", "Response", 0 ],
			"obj-11::obj-52" : [ "Level", "Level", 0 ],
			"obj-6::obj-12" : [ "KeyboardMode", "KeyboardMode", 0 ],
			"obj-11::obj-22" : [ "Mute[1]", "Mute", 0 ],
			"obj-7::obj-36" : [ "PW", "PW", 0 ],
			"obj-8::obj-63" : [ "CV3[1]", "CV3", 0 ],
			"obj-9::obj-55" : [ "Bypass", "Bypass", 0 ],
			"obj-14::obj-16" : [ "range[2]", "range", 0 ],
			"obj-7::obj-45" : [ "FreqMode", "FreqMode", 0 ],
			"obj-11::obj-55" : [ "DSP", "DSP", 0 ],
			"obj-12::obj-69" : [ "Lock", "Lock", 0 ],
			"obj-7::obj-53" : [ "Mute", "Mute", 0 ],
			"obj-6::obj-52" : [ "octave", "octave", 0 ],
			"obj-8::obj-68" : [ "Res", "Res", 0 ],
			"obj-12::obj-1" : [ "divide", "divide", 0 ],
			"obj-8::obj-22" : [ "TimeMode", "TimeMode", 1 ],
			"obj-6::obj-71" : [ "velocity", "velocity", 0 ],
			"parameterbanks" : 			{

			}
,
			"parameter_overrides" : 			{
				"obj-8::obj-20" : 				{
					"parameter_longname" : "Freq[1]"
				}
,
				"obj-6::obj-15::obj-2" : 				{
					"parameter_longname" : "pastebang[1]"
				}
,
				"obj-8::obj-23" : 				{
					"parameter_longname" : "Offset[1]"
				}
,
				"obj-13::obj-16" : 				{
					"parameter_longname" : "range[1]"
				}
,
				"obj-8::obj-51" : 				{
					"parameter_longname" : "CV2[1]"
				}
,
				"obj-11::obj-22" : 				{
					"parameter_longname" : "Mute[1]"
				}
,
				"obj-8::obj-63" : 				{
					"parameter_longname" : "CV3[1]"
				}
,
				"obj-14::obj-16" : 				{
					"parameter_longname" : "range[2]"
				}

			}

		}
,
		"dependency_cache" : [ 			{
				"name" : "bp.Oscillator.maxpat",
				"bootpath" : "C74:/packages/BEAP/clippings/BEAP/Oscillator",
				"type" : "JSON",
				"implicit" : 1
			}
, 			{
				"name" : "sine.svg",
				"bootpath" : "C74:/media/max/picts/m4l-picts",
				"type" : "svg",
				"implicit" : 1
			}
, 			{
				"name" : "updown.svg",
				"bootpath" : "C74:/media/max/picts/m4l-picts",
				"type" : "svg",
				"implicit" : 1
			}
, 			{
				"name" : "up.svg",
				"bootpath" : "C74:/media/max/picts/m4l-picts",
				"type" : "svg",
				"implicit" : 1
			}
, 			{
				"name" : "square.svg",
				"bootpath" : "C74:/media/max/picts/m4l-picts",
				"type" : "svg",
				"implicit" : 1
			}
, 			{
				"name" : "bp.LPF.maxpat",
				"bootpath" : "C74:/packages/BEAP/clippings/BEAP/Filter",
				"type" : "JSON",
				"implicit" : 1
			}
, 			{
				"name" : "bp.VCA.maxpat",
				"bootpath" : "C74:/packages/BEAP/clippings/BEAP/Level",
				"type" : "JSON",
				"implicit" : 1
			}
, 			{
				"name" : "bp.Stereo.maxpat",
				"bootpath" : "C74:/packages/BEAP/clippings/BEAP/Output",
				"type" : "JSON",
				"implicit" : 1
			}
, 			{
				"name" : "bp.Keyboard.maxpat",
				"bootpath" : "C74:/packages/BEAP/clippings/BEAP/Input",
				"type" : "JSON",
				"implicit" : 1
			}
, 			{
				"name" : "background_sm.maxpat",
				"bootpath" : "C74:/packages/BEAP/misc",
				"type" : "JSON",
				"implicit" : 1
			}
, 			{
				"name" : "pastebang.maxpat",
				"bootpath" : "C74:/packages/BEAP/misc",
				"type" : "JSON",
				"implicit" : 1
			}
, 			{
				"name" : "bp.Big Scope.maxpat",
				"bootpath" : "C74:/packages/BEAP/clippings/BEAP/Scope",
				"type" : "JSON",
				"implicit" : 1
			}
, 			{
				"name" : "bp.History.maxpat",
				"bootpath" : "C74:/packages/BEAP/clippings/BEAP/Scope",
				"type" : "JSON",
				"implicit" : 1
			}
 ],
		"autosave" : 0
	}

}
